# xmcd
#
# Track frame offsets: 
#        150
#        16842
#        40222
#        54902
#        73202
#        94650
#        112950
#        129420
#        149672
#        167887
#        188692
#        209030
#        220642
#        234760
#        249085
#        264762
#        279757
#        293962
#        309590
#        325442
#
# Disc length: 4526 seconds
#
# Revision: 0
# Processed by: cddbd v1.4PL0 Copyright (c) Steve Scherf et al.
# Submitted via: ExactAudioCopy v0.90b4
#
DISCID=1c11ac14
DTITLE=Still wanna be black - Jimmy Lewis
DYEAR=1997
DGENRE=Soul
TTITLE0=Message to the ladies
TTITLE1=It ain't what's on the woman
TTITLE2=There ain't no man that be caught
TTITLE3=Is that any way to treat a lady
TTITLE4=How long is a heartache supposed to last
TTITLE5=Thank you
TTITLE6=Go on live your life
TTITLE7=That won't stop me from loving you
TTITLE8=Help me understand you
TTITLE9=I got my troubles
TTITLE10=It's never too late
TTITLE11=Stop to start
TTITLE12=I've got to get you back
TTITLE13=One woman's man
TTITLE14=When love is gone
TTITLE15=Midnight special
TTITLE16=Friendship only goes so far
TTITLE17=I intend to take your place
TTITLE18=Don't sit around
TTITLE19=Still wanna be black
EXTD=
EXTT0=
EXTT1=
EXTT2=
EXTT3=
EXTT4=
EXTT5=
EXTT6=
EXTT7=
EXTT8=
EXTT9=
EXTT10=
EXTT11=
EXTT12=
EXTT13=
EXTT14=
EXTT15=
EXTT16=
EXTT17=
EXTT18=
EXTT19=
PLAYORDER=
